<svg width="88" height="86" viewBox="0 0 88 86" fill="none" xmlns="http://www.w3.org/2000/svg">
<mask id="mask0_2781_57" style="mask-type:luminance" maskUnits="userSpaceOnUse" x="0" y="0" width="88" height="86">
<path d="M87.9699 0H0V85.8243H87.9699V0Z" fill="white"/>
</mask>
<g mask="url(#mask0_2781_57)">
<path d="M64.2045 46.3864C70.1934 43.9087 76.182 41.4309 82.4379 38.8409C84.1784 42.1216 86.0052 45.549 87.9699 49.2527C77.3108 54.5103 67.0221 59.7336 54.8467 58.6543C54.7433 58.9221 54.6398 59.1897 54.5364 59.466C58.75 62.2287 62.9637 64.9914 67.3669 67.8749C66.2381 70.1973 65.0834 72.6405 63.8599 75.0406C62.688 77.363 60.9559 77.8637 58.6553 76.5946C52.4425 73.1758 46.7208 69.1354 42.2142 63.5236C41.9556 63.6532 41.6885 63.7826 41.43 63.9207C43.791 69.757 46.1608 75.6016 48.6339 81.7228C45.1698 83.0091 41.5162 84.3559 37.5438 85.8323C32.6924 75.9557 28.1858 66.1569 28.4012 54.4241C25.6353 58.6286 22.8606 62.8417 19.9309 67.2964C16.5531 65.6301 13.0805 63.9122 9.46996 62.1251C13.2269 54.3981 17.6905 47.5347 24.2134 42.1819C24.0757 41.9057 23.9377 41.6294 23.7914 41.3532C17.7853 43.8136 11.7707 46.2828 5.4545 48.8727C3.74836 45.6181 1.94742 42.1907 0 38.4783C10.6332 33.16 20.9218 27.9887 33.0889 29.0334C33.1838 28.7658 33.2784 28.498 33.3732 28.2305C29.1509 25.4678 24.9373 22.6965 20.5513 19.8215C22.1886 16.5063 23.8688 13.0875 25.7215 9.32337C33.3646 13.0962 40.3098 17.4905 45.6695 24.1296C45.9454 23.9742 46.2211 23.8189 46.4968 23.6633C44.041 17.6805 41.5765 11.6975 38.9743 5.35202C42.1367 3.65988 45.5575 1.82961 48.9613 0.0166016C54.3727 6.5607 58.9999 22.0404 59.4825 33.4104C62.2572 29.1887 65.0231 24.967 67.9787 20.4604C71.3048 22.0921 74.786 23.8015 78.4655 25.5972C74.7517 33.2637 70.3139 40.1272 63.8082 45.4973C63.946 45.7994 64.0839 46.1015 64.2131 46.4038L64.2045 46.3864Z" fill="black"/>
</g>
</svg>
